<?xml version="1.0" encoding="UTF-8"?>
<svg xmlns="http://www.w3.org/2000/svg" xmlns:xlink="http://www.w3.org/1999/xlink" viewBox="0 0 48 48" width="48px" height="48px">
<g id="surface9652588">
<path style=" stroke:none;fill-rule:nonzero;fill:rgb(91.37255%,57.647061%,34.117648%);fill-opacity:1;" d="M 4.078125 24 C 4.078125 13 13 4.078125 24 4.078125 C 35 4.078125 43.921875 13 43.921875 24 C 43.921875 35 35 43.921875 24 43.921875 C 13 43.921875 4.078125 35 4.078125 24 Z M 24 42.960938 C 34.472656 42.960938 42.960938 34.472656 42.960938 24 C 42.960938 13.527344 34.472656 5.039062 24 5.039062 C 13.527344 5.039062 5.039062 13.527344 5.039062 24 C 5.039062 34.472656 13.527344 42.960938 24 42.960938 Z M 24 42.960938 "/>
<path style=" stroke:none;fill-rule:nonzero;fill:rgb(92.54902%,94.117647%,94.509804%);fill-opacity:1;" d="M 10.570312 14.601562 L 10.570312 17.285156 L 37.429688 17.285156 L 37.429688 14.601562 Z M 10.570312 22.65625 L 10.570312 25.34375 L 37.429688 25.34375 L 37.429688 22.65625 Z M 10.570312 30.714844 L 10.570312 33.398438 L 37.429688 33.398438 L 37.429688 30.714844 Z M 10.570312 30.714844 "/>
</g>
</svg>
